<svg xmlns="http://www.w3.org/2000/svg" height="535.595" width="1270">
  <g stroke="#fb9d11" stroke-width="47.383" stroke-miterlimit="10">
    <path fill="#fb9d11" d="M44.03 452.86L6.04 387.062l37.989-65.798h75.977l37.988 65.798-37.988 65.798z" stroke-width="10.00018215"/>
    <path fill="none" d="M255.623 399.562l37.988 65.798-37.988 65.798h-75.977l-37.989-65.798 37.989-65.798zM157.727 71.36l-37.988 65.798H43.762L5.774 71.36 43.762 5.562h75.977l37.988 65.798z" stroke-width="10.00018215"/>
  </g>
  <g style="line-height:125%" font-weight="800" font-size="200" font-family="raleway" letter-spacing="0" word-spacing="0" text-anchor="middle" fill="#fb9d11">
    <path d="M163.2 157.101v142h-32.8v-58.2H73.8v58.2H41v-142h32.8v55h56.6v-55h32.8zM228.819 157.101h29.6l51.8 142h-33.6l-11-31.8h-44.2l-10.8 31.8h-33.6l51.8-142zm31.4 87.6l-16.6-50.2-17 50.2h33.6zM310.925 226.901q0-12.8 4.8-25.4 4.8-12.8 14-22.8t22.4-16.2q13.2-6.2 30-6.2 20 0 34.6 8.6 14.8 8.6 22 22.4l-25.2 17.6q-2.4-5.6-6.2-9.2-3.6-3.8-8-6-4.4-2.4-9-3.2-4.6-1-9-1-9.4 0-16.4 3.8-7 3.8-11.6 9.8-4.6 6-6.8 13.6t-2.2 15.4q0 8.4 2.6 16.2 2.6 7.8 7.4 13.8 5 6 11.8 9.6 7 3.4 15.6 3.4 4.4 0 9-1 4.8-1.2 9-3.4 4.4-2.4 8-6 3.6-3.8 5.8-9.2l26.8 15.8q-3.2 7.8-9.6 14-6.2 6.2-14.4 10.4t-17.4 6.4q-9.2 2.2-18 2.2-15.4 0-28.4-6.2-12.8-6.4-22.2-16.8-9.2-10.4-14.4-23.6-5-13.2-5-26.8zM456.625 299.101v-142h32.8v61.2l52-61.2h36.8l-53.2 63.4 56.8 78.6h-37.4l-40.2-57.2-14.8 15.4v41.8h-32.8z" style="-inkscape-font-specification:'raleway Ultra-Bold';text-align:center"/>
    <path d="M631.162 157.101h29.6l51.8 142h-33.6l-11-31.8h-44.2l-10.8 31.8h-33.6l51.8-142zm31.4 87.6l-16.6-50.2-17 50.2h33.6zM820.684 185.901h-43.2v113.2h-32.8v-113.2h-43.4v-28.8h119.4v28.8zM958.903 157.101v142h-32.8v-58.2h-56.6v58.2h-32.8v-142h32.8v55h56.6v-55h32.8zM1048.122 300.301q-15.8 0-28.8-6.2t-22.2-16.2q-9.2-10.2-14.4-23.2-5-13-5-26.8 0-14 5.2-27 5.4-13 14.8-22.8 9.6-10 22.6-15.8 13-6 28.4-6 15.8 0 28.8 6.2t22.2 16.4q9.2 10.2 14.2 23.2t5 26.4q0 14-5.4 27-5.2 13-14.6 23-9.4 9.8-22.4 15.8-13 6-28.4 6zm-37-72q0 8.2 2.4 16 2.4 7.6 7 13.6 4.8 6 11.8 9.6 7 3.6 16 3.6 9.4 0 16.4-3.8 7-3.8 11.6-9.8 4.6-6.2 6.8-13.8 2.4-7.8 2.4-15.8 0-8.2-2.4-15.8-2.4-7.8-7.2-13.6-4.8-6-11.8-9.4-6.8-3.6-15.8-3.6-9.4 0-16.4 3.8-6.8 3.6-11.6 9.6-4.6 6-7 13.8-2.2 7.6-2.2 15.6zM1170.675 217.901v81.2h-32.8v-142h25.6l66.2 83.4v-83.4h32.8v142h-26.4l-65.4-81.2z" style="-inkscape-font-specification:'raleway Ultra-Bold';text-align:center"/>
  </g>
</svg>
